<svg xmlns="http://www.w3.org/2000/svg" viewBox="0 0 64 64" role="img" aria-labelledby="title desc">
  <title id="title">Esukuma Zero typing game icon</title>
  <desc id="desc">A blue ocean wave and a white keyboard key for the typing game.</desc>
  <rect width="64" height="64" rx="14" fill="#60c9ff"/>
  <path fill="#1595d6" d="M0 37c8-5 15-7 24-4 7 2 12 7 20 7 7 0 13-3 20-9v33H0z"/>
  <path fill="#ffffff" d="M0 45c8-4 16-5 25-2 7 3 13 7 22 5 6-1 11-4 17-9v7c-6 5-12 8-19 9-8 1-15-2-23-5-8-3-15-2-22 3z" opacity=".92"/>
  <rect x="15" y="13" width="34" height="27" rx="7" fill="#fffdf3" stroke="#1e4b66" stroke-width="4"/>
  <path fill="#1e4b66" fill-rule="evenodd" d="M32 17 20 36h7l1.8-4h6.4l1.8 4h7zm0 8 2 4h-4z" clip-rule="evenodd"/>
</svg>
